{"accessors" : [{"bufferView" : 0, "byteOffset" : 0, "componentType" : 5125, "count" : 84816, "type" : "SCALAR", "max" : [84815], "min" : [0]}, {"bufferView" : 1, "byteOffset" : 0, "componentType" : 5126, "count" : 84816, "type" : "VEC3", "max" : [90.25658416748047, 180.88832092285156, 17.174169540405273], "min" : [-90.25662231445312, -0.03219377622008324, -14.895703315734863], "name" : "POSITION"}, {"bufferView" : 1, "byteOffset" : 12, "componentType" : 5126, "count" : 84816, "type" : "VEC3", "max" : [0.9999770522117615, 0.9999836087226868, 0.9999746680259705], "min" : [-0.9999772310256958, -0.9998624324798584, -0.9999957084655762], "name" : "NORMAL"}, {"bufferView" : 1, "byteOffset" : 24, "componentType" : 5126, "count" : 84816, "type" : "VEC2", "max" : [1, 1], "min" : [0, 0], "name" : "TEXCOORD_0"}, {"bufferView" : 0, "byteOffset" : 339264, "componentType" : 5123, "count" : 62520, "type" : "SCALAR", "max" : [12472], "min" : [0]}, {"bufferView" : 2, "byteOffset" : 0, "componentType" : 5126, "count" : 12473, "type" : "VEC3", "max" : [88.34667205810547, 159.64422607421875, 12.501924514770508], "min" : [-88.34671020507812, -0.03511611744761467, -12.99051570892334], "name" : "POSITION"}, {"bufferView" : 2, "byteOffset" : 12, "componentType" : 5126, "count" : 12473, "type" : "VEC3", "max" : [1.0000044107437134, 1.0000044107437134, 1.0000044107437134], "min" : [-1.0000044107437134, -1.0000044107437134, -1.0000044107437134], "name" : "NORMAL"}, {"bufferView" : 2, "byteOffset" : 24, "componentType" : 5126, "count" : 12473, "type" : "VEC2", "max" : [1, 1], "min" : [0, 0], "name" : "TEXCOORD_0"}, {"bufferView" : 3, "byteOffset" : 0, "componentType" : 5126, "normalized" : false, "count" : 94, "type" : "SCALAR", "max" : [6.833333333333334], "min" : [0]}, {"bufferView" : 3, "byteOffset" : 376, "componentType" : 5126, "normalized" : false, "count" : 94, "type" : "VEC3", "max" : [11.144970893859863, 101.71202087402344, 26.515092849731445], "min" : [-11.019135475158691, 54.077919006347656, 8.918771743774414]}], "animations" : [{"channels" : [{"sampler" : 0, "target" : {"node" : -1, "path" : "translation"}}], "samplers" : [{"input" : 8, "interpolation" : "CUBICSPLINE", "output" : 9}], "name" : "mixamo.com"}], "asset" : {"generator" : "Aspose.3D 24.2.0", "version" : "2.0"}, "buffers" : [{"uri" : "buffer.bin", "byteLength" : 3579072}], "bufferViews" : [{"buffer" : 0, "byteOffset" : 0, "byteLength" : 464304, "target" : 34963}, {"buffer" : 0, "byteOffset" : 464308, "byteLength" : 2714112, "byteStride" : 32, "target" : 34962}, {"buffer" : 0, "byteOffset" : 3178424, "byteLength" : 399136, "byteStride" : 32, "target" : 34962}, {"buffer" : 0, "byteOffset" : 3577564, "byteLength" : 1504}], "materials" : [{"name" : "Beta_HighLimbsGeoSG3", "pbrMetallicRoughness" : {"baseColorFactor" : [0.8370000123977661, 0.30230802297592163, 0.26365500688552856, 1], "metallicFactor" : 1, "roughnessFactor" : 1}, "emissiveFactor" : [0, 0, 0], "alphaMode" : "OPAQUE", "doubleSided" : false}, {"name" : "Beta_Joints_MAT1", "pbrMetallicRoughness" : {"baseColorFactor" : [0.3333333432674408, 0.12452887743711472, 0.10101473331451416, 1], "metallicFactor" : 1, "roughnessFactor" : 1}, "emissiveFactor" : [0, 0, 0], "alphaMode" : "OPAQUE", "doubleSided" : false}], "meshes" : [{"primitives" : [{"attributes" : {"POSITION" : 1, "NORMAL" : 2, "TEXCOORD_0" : 3}, "indices" : 0, "material" : 0, "mode" : 4}], "name" : "Beta_Surface"}, {"primitives" : [{"attributes" : {"POSITION" : 5, "NORMAL" : 6, "TEXCOORD_0" : 7}, "indices" : 4, "material" : 1, "mode" : 4}], "name" : "Beta_Joints"}], "nodes" : [{"mesh" : 0, "name" : "Beta_Surface"}, {"mesh" : 1, "name" : "Beta_Joints"}], "scene" : 0, "scenes" : [{"nodes" : [0, 1]}]}