{
	"asset":{
		"generator":"Khronos glTF Blender I/O v4.1.63",
		"version":"2.0"
	},
	"scene":0,
	"scenes":[
		{
			"name":"Scene",
			"nodes":[
				0
			]
		}
	],
	"nodes":[
		{
			"mesh":0,
			"name":"Mesh_0"
		}
	],
	"materials":[
		{
			"name":"Material_0",
			"normalTexture":{
				"index":0
			},
			"occlusionTexture":{
				"index":1
			},
			"pbrMetallicRoughness":{
				"baseColorTexture":{
					"index":2
				},
				"metallicFactor":0
			}
		}
	],
	"meshes":[
		{
			"name":"Mesh_0",
			"primitives":[
				{
					"attributes":{
						"POSITION":0,
						"NORMAL":1,
						"TEXCOORD_0":2
					},
					"indices":3,
					"material":0
				}
			]
		}
	],
	"textures":[
		{
			"sampler":0,
			"source":0
		},
		{
			"sampler":0,
			"source":1
		},
		{
			"sampler":0,
			"source":2
		}
	],
	"images":[
		{
			"mimeType":"image/jpeg",
			"name":"Image_1",
			"uri":"Image_1.jpg"
		},
		{
			"mimeType":"image/jpeg",
			"name":"Image_2",
			"uri":"Image_2.jpg"
		},
		{
			"mimeType":"image/jpeg",
			"name":"Image_0",
			"uri":"Image_0.jpg"
		}
	],
	"accessors":[
		{
			"bufferView":0,
			"componentType":5126,
			"count":71873,
			"max":[
				0.09922397136688232,
				0.08555163443088531,
				0.09886481612920761
			],
			"min":[
				-0.0673840194940567,
				-0.08422629535198212,
				-0.11209427565336227
			],
			"type":"VEC3"
		},
		{
			"bufferView":1,
			"componentType":5126,
			"count":71873,
			"type":"VEC3"
		},
		{
			"bufferView":2,
			"componentType":5126,
			"count":71873,
			"type":"VEC2"
		},
		{
			"bufferView":3,
			"componentType":5125,
			"count":71895,
			"type":"SCALAR"
		}
	],
	"bufferViews":[
		{
			"buffer":0,
			"byteLength":862476,
			"byteOffset":0,
			"target":34962
		},
		{
			"buffer":0,
			"byteLength":862476,
			"byteOffset":862476,
			"target":34962
		},
		{
			"buffer":0,
			"byteLength":574984,
			"byteOffset":1724952,
			"target":34962
		},
		{
			"buffer":0,
			"byteLength":287580,
			"byteOffset":2299936,
			"target":34963
		}
	],
	"samplers":[
		{
			"magFilter":9729,
			"minFilter":9987
		}
	],
	"buffers":[
		{
			"byteLength":2587516,
			"uri":"skull.bin"
		}
	]
}
